<svg width="66" height="66" viewBox="0 0 66 66" fill="none" xmlns="http://www.w3.org/2000/svg">
<g filter="url(#filter0_d_48_492)">
<circle cx="33" cy="29" r="29" fill="#212121"/>
</g>
<g clip-path="url(#clip0_48_492)">
<path d="M44.7116 27.3269H41.8674C41.8674 28.5649 41.5997 29.7194 41.148 30.7567L43.2058 32.8145C44.1428 31.1749 44.7116 29.3178 44.7116 27.3269ZM37.9858 27.6113C37.9858 27.5109 38.0193 27.4272 38.0193 27.3269V17.2884C38.0193 14.5111 35.7774 12.2692 33.0001 12.2692C30.2228 12.2692 27.9808 14.5111 27.9808 17.2884V17.5895L37.9858 27.6113ZM20.0672 13.9422L17.9424 16.067L27.9976 26.1222V27.3269C27.9976 30.1042 30.2228 32.3461 33.0001 32.3461C33.3682 32.3461 33.7362 32.2959 34.0876 32.2122L36.8649 34.9895C35.677 35.5417 34.3553 35.8596 33.0001 35.8596C28.3824 35.8596 24.1328 32.3461 24.1328 27.3269H21.2885C21.2885 33.032 25.8393 37.7501 31.327 38.5699V44.0576H34.6732V38.5699C36.1957 38.3524 37.6345 37.817 38.9228 37.0642L45.933 44.0576L48.0578 41.9328L20.0672 13.9422Z" fill="white"/>
<rect x="20.0898" y="14.014" width="39.4981" height="3.01733" transform="rotate(44.9525 20.0898 14.014)" fill="#F44336"/>
</g>
<defs>
<filter id="filter0_d_48_492" x="0" y="0" width="66" height="66" filterUnits="userSpaceOnUse" color-interpolation-filters="sRGB">
<feFlood flood-opacity="0" result="BackgroundImageFix"/>
<feColorMatrix in="SourceAlpha" type="matrix" values="0 0 0 0 0 0 0 0 0 0 0 0 0 0 0 0 0 0 127 0" result="hardAlpha"/>
<feOffset dy="4"/>
<feGaussianBlur stdDeviation="2"/>
<feColorMatrix type="matrix" values="0 0 0 0 0 0 0 0 0 0 0 0 0 0 0 0 0 0 0.25 0"/>
<feBlend mode="normal" in2="BackgroundImageFix" result="effect1_dropShadow_48_492"/>
<feBlend mode="normal" in="SourceGraphic" in2="effect1_dropShadow_48_492" result="shape"/>
</filter>
<clipPath id="clip0_48_492">
<rect width="40.1538" height="40.1538" fill="white" transform="translate(12.9229 8.92297)"/>
</clipPath>
</defs>
</svg>
